<svg width="24" height="24" viewBox="0 0 24 24" fill="none" xmlns="http://www.w3.org/2000/svg">
<g id="exit 1">
<path id="Vector" d="M16.1016 17.3125V18.875C16.1016 20.5982 14.6997 22 12.9766 22H5.125C3.40182 22 2 20.5982 2 18.875V5.125C2 3.40182 3.40182 2 5.125 2H12.9766C14.6997 2 16.1016 3.40182 16.1016 5.125V6.6875C16.1016 7.11902 15.7518 7.46875 15.3203 7.46875C14.8888 7.46875 14.5391 7.11902 14.5391 6.6875V5.125C14.5391 4.26349 13.8381 3.5625 12.9766 3.5625H5.125C4.26349 3.5625 3.5625 4.26349 3.5625 5.125V18.875C3.5625 19.7365 4.26349 20.4375 5.125 20.4375H12.9766C13.8381 20.4375 14.5391 19.7365 14.5391 18.875V17.3125C14.5391 16.881 14.8888 16.5312 15.3203 16.5312C15.7518 16.5312 16.1016 16.881 16.1016 17.3125ZM21.4279 10.658L19.6785 8.90857C19.3734 8.60339 18.8787 8.60339 18.5736 8.90857C18.2685 9.21359 18.2685 9.70828 18.5736 10.0133L19.818 11.2578H10.4375C10.006 11.2578 9.65625 11.6075 9.65625 12.0391C9.65625 12.4706 10.006 12.8203 10.4375 12.8203H19.818L18.5736 14.0648C18.2685 14.3698 18.2685 14.8645 18.5736 15.1696C18.7262 15.3221 18.9261 15.3984 19.126 15.3984C19.326 15.3984 19.5259 15.3221 19.6785 15.1696L21.4279 13.4201C22.1895 12.6586 22.1895 11.4196 21.4279 10.658Z" fill="#F9524E"/>
</g>
</svg>
