<svg xmlns="http://www.w3.org/2000/svg" width="99" height="32" viewBox="0 0 99 32" fill="none">
    <path d="M0.015625 15.5915C0.015625 14.6891 0.747177 13.9575 1.64959 13.9575H8.18547C9.08788 13.9575 9.81944 14.6891 9.81944 15.5915V30.2972C9.81944 31.1996 9.08788 31.9312 8.18547 31.9312H1.64959C0.747176 31.9312 0.015625 31.1996 0.015625 30.2972V15.5915Z" fill="#292929"/>
    <path d="M0.015625 4.97075C0.015625 2.26351 2.21028 0.0688477 4.91753 0.0688477C7.62478 0.0688477 9.81944 2.26351 9.81944 4.97075C9.81944 7.678 7.62478 9.87266 4.91753 9.87266C2.21028 9.87266 0.015625 7.678 0.015625 4.97075Z" fill="#292929"/>
    <path d="M13.9053 1.70282C13.9053 0.800401 14.6368 0.0688477 15.5392 0.0688477H29.428C33.2632 0.0688477 36.3723 3.17795 36.3723 7.01321C36.3723 10.8485 33.2632 13.9576 29.428 13.9576H15.5392C14.6368 13.9576 13.9053 13.226 13.9053 12.3236V1.70282Z" fill="#292929"/>
    <path fill-rule="evenodd" clip-rule="evenodd" d="M27.7939 7.01344C27.7939 6.11102 28.5255 5.37947 29.4279 5.37947L29.4156 5.37939C35.2813 5.37939 40.0363 10.1345 40.0363 16.0002C40.0363 21.8659 35.2813 26.621 29.4156 26.621L29.4279 26.6211C28.5255 26.6211 27.7939 25.8895 27.7939 24.9871C27.7939 24.0847 28.5255 23.3531 29.4279 23.3531L29.4156 23.353C33.4764 23.353 36.7684 20.0611 36.7684 16.0002C36.7684 11.9393 33.4764 8.64733 29.4156 8.64733L29.4279 8.64741C28.5255 8.64741 27.7939 7.91585 27.7939 7.01344Z" fill="#FFE054"/>
    <path d="M13.9053 30.2972C13.9053 31.1996 14.6368 31.9312 15.5392 31.9312H29.428C33.2632 31.9312 36.3723 28.8221 36.3723 24.9868C36.3723 21.1515 33.2632 18.0424 29.428 18.0424H15.5392C14.6368 18.0424 13.9053 18.774 13.9053 19.6764V30.2972Z" fill="#474747"/>
    <path d="M27.7939 24.987C27.7939 24.0846 28.5255 23.353 29.4279 23.353C30.3303 23.353 31.0619 24.0846 31.0619 24.987C31.0619 25.8894 30.3303 26.621 29.4279 26.621C28.5255 26.621 27.7939 25.8894 27.7939 24.987Z" fill="#FFE054"/>
    <path d="M58.9807 14.0771H55.7468C55.4304 14.0771 55.2547 14.288 55.2195 14.6044L55.1141 16.2213C53.8135 14.745 52.056 13.6904 49.8766 13.6904C45.061 13.6904 41.5459 17.6976 41.5459 22.7242C41.5459 27.7507 45.061 31.7579 49.8766 31.7579C52.1263 31.7579 53.8487 30.7385 55.0789 29.2974L55.2195 30.7737C55.2547 31.09 55.4304 31.301 55.7468 31.301H58.9807C59.297 31.301 59.5079 31.09 59.5079 30.7737V14.6044C59.5079 14.288 59.297 14.0771 58.9807 14.0771ZM50.439 27.5398C47.873 27.5398 46.01 25.4659 46.01 22.689C46.01 19.9473 47.873 17.9085 50.439 17.9085C52.9699 17.9085 54.8329 20.0879 54.8329 22.689C54.8329 25.2902 52.9699 27.5398 50.439 27.5398Z" fill="#292929"/>
    <path d="M78.7369 14.6044C78.7369 14.288 78.526 14.0771 78.2097 14.0771H64.7118C64.3954 14.0771 64.1845 14.288 64.1845 14.6044V17.3461C64.1845 17.6625 64.3954 17.8734 64.7118 17.8734H73.1831L64.4306 27.2235C64.2548 27.3992 64.1845 27.6453 64.1845 27.8913V30.7737C64.1845 31.09 64.3954 31.301 64.7118 31.301H78.2097C78.526 31.301 78.7369 31.09 78.7369 30.7737V28.0319C78.7369 27.7156 78.526 27.5047 78.2097 27.5047H69.7735L78.4909 18.1546C78.6666 17.9788 78.7369 17.7328 78.7369 17.4867V14.6044Z" fill="#292929"/>
    <path d="M98.4718 14.0771H95.2379C94.9216 14.0771 94.7458 14.288 94.7107 14.6044L94.6052 16.2213C93.3046 14.745 91.5471 13.6904 89.3677 13.6904C84.5521 13.6904 81.037 17.6976 81.037 22.7242C81.037 27.7507 84.5521 31.7579 89.3677 31.7579C91.6174 31.7579 93.3398 30.7385 94.57 29.2974L94.7107 30.7737C94.7458 31.09 94.9216 31.301 95.2379 31.301H98.4718C98.7881 31.301 98.999 31.09 98.999 30.7737V14.6044C98.999 14.288 98.7881 14.0771 98.4718 14.0771ZM89.9302 27.5398C87.3642 27.5398 85.5012 25.4659 85.5012 22.689C85.5012 19.9473 87.3642 17.9085 89.9302 17.9085C92.461 17.9085 94.324 20.0879 94.324 22.689C94.324 25.2902 92.461 27.5398 89.9302 27.5398Z" fill="#292929"/>
</svg>