<svg width="32" height="32" viewBox="0 0 32 32" fill="none" xmlns="http://www.w3.org/2000/svg">
    <g id="COCO/Line/Edit">
        <rect width="32" height="32" rx="4" fill="#F6F6F6"/>
        <g id="Group 21594">
            <path id="Vector" d="M24.5785 10.8072C22.8855 11.3716 20.6282 9.11426 21.1926 7.42126M21.0556 7.55819L17.4082 11.2056C15.8225 12.7913 14.6976 14.7781 14.1537 16.9536L13.9775 17.6586C13.9226 17.8783 14.1215 18.0772 14.3412 18.0223L15.0462 17.8461C17.2217 17.3022 19.2085 16.1773 20.7942 14.5916L24.4416 10.9442C24.8906 10.4952 25.1429 9.88618 25.1429 9.25119C25.1429 7.92888 24.0709 6.85693 22.7486 6.85693C22.1136 6.85693 21.5046 7.10918 21.0556 7.55819Z" stroke="#9E9EA5" stroke-width="2"/>
            <path id="Vector_2" d="M16.0003 6.85693C14.9607 6.85693 13.9211 6.97643 12.9023 7.21541C10.0808 7.87725 7.87774 10.0803 7.2159 12.9018C6.73793 14.9395 6.73793 17.0601 7.2159 19.0978C7.87774 21.9193 10.0808 24.1223 12.9023 24.7842C14.94 25.2621 17.0606 25.2621 19.0983 24.7842C21.9198 24.1223 24.1228 21.9193 24.7847 19.0978C25.0236 18.0789 25.1431 17.0393 25.1431 15.9998" stroke="#9E9EA5" stroke-width="2" stroke-linecap="round"/>
        </g>
    </g>
</svg>
